# File created by Blade
# Date/Time:  Wed Apr 08 17:24:36 2015
# Frame Rate: 120.000 fps
#------------------------------------------------------
:FULLY-SPECIFIED
:DEGREES
738
root 7.356030 37.545993 2.978205 104.128572 -60.261597 -125.102706
Spine 35.350341 0.710336 17.500432
Head -11.023513 17.868108 6.294821
LeftShoulder -5.365301 16.369374 17.727496
LeftArm 18.078208 30.949086 -78.653464
LeftForeArm 12.157232 -0.000000 29.565148
LeftHand -13.433095 0.000000 -11.818878
LeftHandThumb1 -26.253704 0.000000 33.147579
RightShoulder -28.655003 -44.924755 15.126634
RightArm 53.992414 -6.277533 62.316573
RightForeArm 54.824360 -0.000000 39.365771
RightHand -0.174756 0.000000 18.190867
RightHandThumb1 -24.326973 -0.000000 -32.862282
LeftUpLeg 30.360292 31.689753 35.215662
LeftLeg 9.728495 -0.000000 -0.000000
LeftFoot -16.845960 11.974939 -7.911852
LeftToeBase 7.368143 -0.000000 -0.000000
RightUpLeg -72.076356 -27.503613 -13.427445
RightLeg 153.356955 -0.000000 -0.000000
RightFoot 19.457937 3.538716 8.127016
RightToeBase -7.583605 -0.000000 0.000000
739
root 7.355132 37.542719 2.977910 104.756922 -60.048506 -125.566979
Spine 35.267863 0.740564 17.447751
Head -11.068682 17.916160 6.316768
LeftShoulder -5.389114 16.378808 17.734849
LeftArm 18.065508 30.967353 -78.712422
LeftForeArm 12.221854 -0.000000 29.482275
LeftHand -13.416342 0.000000 -11.861477
LeftHandThumb1 -26.253704 0.000000 33.147579
RightShoulder -28.706031 -44.923480 15.188882
RightArm 54.016205 -6.295251 62.431960
RightForeArm 54.831873 -0.000000 39.358508
RightHand -0.175818 0.000000 18.152492
RightHandThumb1 -24.326973 -0.000000 -32.862282
LeftUpLeg 30.298202 31.858654 35.225225
LeftLeg 9.723094 -0.000000 -0.000000
LeftFoot -16.856437 12.188511 -7.889827
LeftToeBase 7.257199 -0.000000 -0.000000
RightUpLeg -72.200099 -27.494008 -13.348826
RightLeg 153.412098 -0.000000 -0.000000
RightFoot 19.589058 3.536996 8.159629
RightToeBase -7.708722 -0.000000 0.000000
740
root 7.350300 37.543621 2.977308 105.218351 -59.817639 -125.960387
Spine 35.291161 0.717848 17.439232
Head -11.082694 17.949960 6.331541
LeftShoulder -5.365677 16.416028 17.749680
LeftArm 18.095101 31.029324 -78.720874
LeftForeArm 12.213020 -0.000000 29.456233
LeftHand -13.440518 -0.000000 -11.856899
LeftHandThumb1 -26.253704 0.000000 33.147579
RightShoulder -28.731703 -44.909571 15.198919
RightArm 54.006988 -6.314919 62.562278
RightForeArm 54.765086 0.000000 39.396734
RightHand -0.180356 -0.000000 18.130570
RightHandThumb1 -24.326973 -0.000000 -32.862282
LeftUpLeg 30.344930 31.994493 35.346459
LeftLeg 9.715363 -0.000000 -0.000000
LeftFoot -16.863747 12.326453 -7.917419
LeftToeBase 7.150696 -0.000000 -0.000000
RightUpLeg -72.169483 -27.499462 -13.319353
RightLeg 153.453366 -0.000000 -0.000000
RightFoot 19.730683 3.518049 8.110685
RightToeBase -7.762587 -0.000000 0.000000
741
root 7.348746 37.542712 2.976270 105.783086 -59.587384 -126.377953
Spine 35.222412 0.740547 17.410112
Head -11.067894 17.987392 6.403388
LeftShoulder -5.352060 16.423900 17.778070
LeftArm 18.082509 31.109201 -78.751838
LeftForeArm 12.260626 -0.000000 29.432597
LeftHand -13.370975 -0.000000 -11.850969
LeftHandThumb1 -26.253704 0.000000 33.147579
RightShoulder -28.737519 -44.889852 15.243310
RightArm 53.925404 -6.256930 62.671175
RightForeArm 54.116767 -0.000000 39.400061
RightHand -0.073407 -0.000000 18.696999
RightHandThumb1 -24.326973 -0.000000 -32.862282
LeftUpLeg 30.316493 32.196514 35.425301
LeftLeg 9.709614 -0.000000 -0.000000
LeftFoot -16.893777 12.485606 -7.917005
LeftToeBase 7.113251 -0.000000 -0.000000
RightUpLeg -72.239674 -27.488605 -13.253084
RightLeg 153.497360 -0.000000 -0.000000
RightFoot 19.870373 3.466485 8.142497
RightToeBase -8.055696 -0.000000 0.000000
742
root 7.341784 37.544889 2.977137 106.154248 -59.366751 -126.692097
Spine 35.253298 0.663663 17.394213
Head -11.086552 17.992034 6.433069
LeftShoulder -5.366066 16.415328 17.798843
LeftArm 18.082910 31.190186 -78.795715
LeftForeArm 12.367699 -0.000000 29.378875
LeftHand -13.444245 -0.000000 -11.866345
LeftHandThumb1 -26.253704 0.000000 33.147579
RightShoulder -28.726851 -44.913631 15.218604
RightArm 53.900633 -6.302401 62.697519
RightForeArm 54.343998 -0.000000 39.521459
RightHand -0.012433 -0.000000 18.485915
RightHandThumb1 -24.326973 -0.000000 -32.862282
LeftUpLeg 30.372088 32.325426 35.560317
LeftLeg 9.694289 -0.000000 -0.000000
LeftFoot -16.902135 12.617422 -7.929085
LeftToeBase 7.056810 -0.000000 -0.000000
RightUpLeg -72.147790 -27.530899 -13.286764
RightLeg 153.539205 -0.000000 -0.000000
RightFoot 19.983915 3.456667 8.056959
RightToeBase -8.042816 -0.000000 0.000000
743
root 7.340029 37.545628 2.980048 106.624978 -59.158777 -127.001463
Spine 35.177482 0.658122 17.387242
Head -11.088399 17.968057 6.496960
LeftShoulder -5.335985 16.419488 17.811782
LeftArm 18.112776 31.262123 -78.808082
LeftForeArm 12.373027 -0.000000 29.333212
LeftHand -13.428013 -0.000000 -11.924938
LeftHandThumb1 -26.253704 0.000000 33.147579
RightShoulder -28.784941 -44.933354 15.300379
RightArm 53.877976 -6.294180 62.646375
RightForeArm 54.422827 -0.000000 39.618611
RightHand -0.076735 -0.000000 18.344040
RightHandThumb1 -24.326973 -0.000000 -32.862282
LeftUpLeg 30.311649 32.524855 35.628333
LeftLeg 9.696147 -0.000000 -0.000000
LeftFoot -16.918914 12.735009 -7.933951
LeftToeBase 7.010007 -0.000000 -0.000000
RightUpLeg -72.167697 -27.586039 -13.298681
RightLeg 153.574643 -0.000000 -0.000000
RightFoot 20.116177 3.463476 7.999542
RightToeBase -8.127614 -0.000000 0.000000
744
root 7.338759 37.547169 2.983518 107.025738 -58.979705 -127.232932
Spine 35.102003 0.612867 17.354901
Head -11.106904 17.940627 6.570745
LeftShoulder -5.310183 16.348766 17.848635
LeftArm 18.063364 31.391770 -78.848925
LeftForeArm 12.388283 -0.000000 29.322432
LeftHand -13.502047 -0.000000 -11.887711
LeftHandThumb1 -26.253704 0.000000 33.147579
RightShoulder -28.850636 -44.948309 15.388013
RightArm 53.882675 -6.309850 62.552519
RightForeArm 54.573672 -0.000000 39.708928
RightHand -0.115207 -0.000000 18.080768
RightHandThumb1 -24.326973 -0.000000 -32.862282
LeftUpLeg 30.209567 32.711177 35.672959
LeftLeg 9.721980 -0.000000 -0.000000
LeftFoot -16.937840 12.847796 -7.910649
LeftToeBase 6.976599 -0.000000 -0.000000
RightUpLeg -72.152331 -27.676318 -13.366297
RightLeg 153.598789 -0.000000 -0.000000
RightFoot 20.297378 3.536247 7.928402
RightToeBase -8.215974 -0.000000 0.000000
